<svg width="40" height="40" viewBox="0 0 40 40" fill="none" xmlns="http://www.w3.org/2000/svg">
<g id="coin-hand">
<path id="Icon" d="M13.0915 33.1531C12.5671 33.3264 12.2825 33.892 12.4558 34.4164C12.6291 34.9408 13.1947 35.2254 13.7191 35.0521L13.0915 33.1531ZM23.1036 34.7436L23.0137 33.7477L23.0137 33.7477L23.1036 34.7436ZM28.9227 33.4616L29.3582 34.3618L29.3582 34.3618L28.9227 33.4616ZM34.4829 28.4468L33.7084 27.8142L33.7084 27.8142L34.4829 28.4468ZM30.68 25.309L31.3841 26.0192L31.3841 26.0192L30.68 25.309ZM28.1192 27.8479L28.8233 28.558L28.8233 28.558L28.1192 27.8479ZM21.164 27.9744C20.6117 27.9744 20.164 28.4221 20.164 28.9744C20.164 29.5267 20.6117 29.9744 21.164 29.9744V27.9744ZM33.8916 24.9937L33.3402 25.828L33.3402 25.828L33.8916 24.9937ZM15.3734 24.1526L15.8175 25.0486L15.8175 25.0486L15.3734 24.1526ZM22.3335 23.5214L22.5945 22.5561L22.5945 22.5561L22.3335 23.5214ZM25.0515 24.2563L24.7905 25.2217L24.7905 25.2217L25.0515 24.2563ZM25.9127 27.4715L25.2086 26.7613L25.2086 26.7613L25.9127 27.4715ZM23.6927 28.2643C23.3005 28.6531 23.2978 29.2863 23.6866 29.6785C24.0755 30.0707 24.7086 30.0734 25.1008 29.6845L23.6927 28.2643ZM13.7191 35.0521C14.0106 34.9558 14.4944 34.92 15.2138 34.9709C15.9128 35.0203 16.7205 35.1409 17.6157 35.2803C19.3477 35.55 21.427 35.8991 23.1936 35.7396L23.0137 33.7477C21.5475 33.8801 19.7475 33.5882 17.9234 33.3041C17.0405 33.1666 16.151 33.0322 15.3549 32.9759C14.579 32.921 13.7698 32.9289 13.0915 33.1531L13.7191 35.0521ZM23.1936 35.7396C25.721 35.5113 26.8513 35.5746 29.3582 34.3618L28.4871 32.5614C26.3658 33.5878 25.615 33.5127 23.0137 33.7477L23.1936 35.7396ZM29.3582 34.3618C31.5938 33.2801 33.8611 30.7886 35.2573 29.0795L33.7084 27.8142C32.3025 29.5352 30.2804 31.6938 28.4871 32.5614L29.3582 34.3618ZM29.9759 24.5989L27.4152 27.1377L28.8233 28.558L31.3841 26.0192L29.9759 24.5989ZM25.3761 27.9744H21.164V29.9744H25.3761V27.9744ZM27.4152 27.1377C26.8758 27.6725 26.1425 27.9744 25.3761 27.9744V29.9744C26.6674 29.9744 27.9076 29.4659 28.8233 28.558L27.4152 27.1377ZM34.443 24.1595C33.0394 23.2318 31.171 23.4141 29.9759 24.5989L31.3841 26.0192C31.9049 25.5028 32.7248 25.4212 33.3402 25.828L34.443 24.1595ZM35.2573 29.0795C36.5553 27.4906 36.0744 25.2378 34.443 24.1595L33.3402 25.828C34.0678 26.3089 34.1948 27.2187 33.7084 27.8142L35.2573 29.0795ZM6.29312 23.5641H11.4656V21.5641H6.29312V23.5641ZM11.7587 23.8462V35.3847H13.7587V23.8462H11.7587ZM11.4656 35.6667H6.29312V37.6667H11.4656V35.6667ZM6 35.3847V23.8462H4V35.3847H6ZM6.29312 35.6667C6.12311 35.6667 6 35.5323 6 35.3847H4C4 36.6531 5.03479 37.6667 6.29312 37.6667V35.6667ZM11.7587 35.3847C11.7587 35.5323 11.6356 35.6667 11.4656 35.6667V37.6667C12.7239 37.6667 13.7587 36.6531 13.7587 35.3847H11.7587ZM11.4656 23.5641C11.6356 23.5641 11.7587 23.6985 11.7587 23.8462H13.7587C13.7587 22.5778 12.7239 21.5641 11.4656 21.5641V23.5641ZM6.29312 21.5641C5.03478 21.5641 4 22.5778 4 23.8462H6C6 23.6985 6.12311 23.5641 6.29312 23.5641V21.5641ZM13.8494 26.0242L15.8175 25.0486L14.9292 23.2567L12.9611 24.2323L13.8494 26.0242ZM19.4215 24.2052H19.9518V22.2052H19.4215V24.2052ZM22.0724 24.4867L24.7905 25.2217L25.3125 23.291L22.5945 22.5561L22.0724 24.4867ZM25.2086 26.7613L23.6927 28.2643L25.1008 29.6845L26.6167 28.1816L25.2086 26.7613ZM24.7905 25.2217C25.4916 25.4112 25.7084 26.2659 25.2086 26.7613L26.6167 28.1816C28.2232 26.5889 27.4851 23.8784 25.3125 23.291L24.7905 25.2217ZM19.9518 24.2052C20.6682 24.2052 21.3814 24.2999 22.0724 24.4867L22.5945 22.5561C21.7331 22.3232 20.8444 22.2052 19.9518 22.2052V24.2052ZM15.8175 25.0486C16.9361 24.4941 18.17 24.2052 19.4215 24.2052V22.2052C17.8624 22.2052 16.3244 22.565 14.9292 23.2567L15.8175 25.0486ZM28.5692 13.5898C28.5692 15.8616 26.7093 17.718 24.3968 17.718V19.718C27.7976 19.718 30.5692 16.9824 30.5692 13.5898H28.5692ZM24.3968 17.718C22.0842 17.718 20.2243 15.8616 20.2243 13.5898H18.2243C18.2243 16.9824 20.9959 19.718 24.3968 19.718V17.718ZM20.2243 13.5898C20.2243 11.3179 22.0842 9.46158 24.3968 9.46158V7.46158C20.9959 7.46158 18.2243 10.1972 18.2243 13.5898H20.2243ZM24.3968 9.46158C26.7093 9.46158 28.5692 11.3179 28.5692 13.5898H30.5692C30.5692 10.1972 27.7976 7.46158 24.3968 7.46158V9.46158ZM19.2243 12.5898C16.9118 12.5898 15.0518 10.7334 15.0518 8.46158H13.0518C13.0518 11.8542 15.8235 14.5898 19.2243 14.5898V12.5898ZM15.0518 8.46158C15.0518 6.18972 16.9118 4.33337 19.2243 4.33337V2.33337C15.8235 2.33337 13.0518 5.06898 13.0518 8.46158H15.0518ZM19.2243 4.33337C21.5368 4.33337 23.3968 6.18972 23.3968 8.46158H25.3968C25.3968 5.06898 22.6251 2.33337 19.2243 2.33337V4.33337Z" fill="#FFD361"/>
</g>
</svg>
