<svg width="40" height="41" viewBox="0 0 40 41" fill="none" xmlns="http://www.w3.org/2000/svg">
<g id="Linear / Map &#38; Location / Global">
<path id="Vector" d="M36.6666 20.5C36.6666 22.6887 36.2355 24.8559 35.398 26.878C34.5604 28.9001 33.3327 30.7374 31.7851 32.2851C30.2374 33.8327 28.4001 35.0604 26.378 35.898C24.3559 36.7355 22.1887 37.1666 20 37.1666C17.8113 37.1666 15.644 36.7355 13.6219 35.898C11.5998 35.0604 9.76251 33.8327 8.21487 32.2851C6.66722 30.7374 5.43957 28.9001 4.60199 26.878C3.76441 24.8559 3.33331 22.6887 3.33331 20.5C3.33331 18.3113 3.76441 16.144 4.60199 14.1219C5.43957 12.0998 6.66722 10.2625 8.21487 8.71487C9.76251 7.16722 11.5998 5.93956 13.6219 5.10199C15.644 4.26441 17.8113 3.83331 20 3.83331C22.1887 3.83331 24.3559 4.26441 26.378 5.10199C28.4001 5.93957 30.2375 7.16722 31.7851 8.71487C33.3327 10.2625 34.5604 12.0998 35.398 14.1219C36.2355 16.144 36.6666 18.3113 36.6666 20.5L36.6666 20.5Z" stroke="#FFD361" stroke-width="2"/>
<path id="Vector_2" d="M26.6666 20.5C26.6666 22.6887 26.4942 24.8559 26.1592 26.878C25.8241 28.9001 25.3331 30.7374 24.714 32.2851C24.095 33.8327 23.36 35.0604 22.5512 35.898C21.7424 36.7355 20.8755 37.1666 20 37.1666C19.1245 37.1666 18.2576 36.7355 17.4488 35.898C16.6399 35.0604 15.905 33.8327 15.2859 32.2851C14.6669 30.7374 14.1758 28.9001 13.8408 26.878C13.5058 24.8559 13.3333 22.6887 13.3333 20.5C13.3333 18.3113 13.5058 16.144 13.8408 14.1219C14.1758 12.0998 14.6669 10.2625 15.2859 8.71487C15.905 7.16722 16.6399 5.93956 17.4488 5.10199C18.2576 4.26441 19.1245 3.83331 20 3.83331C20.8755 3.83331 21.7424 4.26441 22.5512 5.10199C23.36 5.93957 24.095 7.16722 24.714 8.71487C25.3331 10.2625 25.8241 12.0998 26.1592 14.1219C26.4942 16.144 26.6666 18.3113 26.6666 20.5L26.6666 20.5Z" stroke="#FFD361" stroke-width="2"/>
<path id="Vector_3" d="M3.33331 20.5H36.6666" stroke="#FFD361" stroke-width="2" stroke-linecap="round"/>
</g>
</svg>
