<svg width="40" height="41" viewBox="0 0 40 41" fill="none" xmlns="http://www.w3.org/2000/svg">
<g id="server-01">
<path id="Icon" d="M28.0001 20.5H11.9998M28.0001 20.5C32.4184 20.5 36.0001 16.9183 36.0001 12.5C36.0001 8.08172 32.4183 4.5 28.0001 4.5H11.9998C7.58144 4.5 3.99967 8.08188 3.99982 12.5003C3.99996 16.9184 7.58164 20.5 11.9998 20.5M28.0001 20.5C32.4184 20.5 36.0001 24.0817 36.0001 28.5C36.0001 32.9183 32.4184 36.5 28.0001 36.5H11.9998C7.58164 36.5 3.99996 32.9184 3.99982 28.5003C3.99967 24.0819 7.58144 20.5 11.9998 20.5M28.9996 12.5H18.9996M28.9996 28.5H18.9996M10.9996 28.6504V28.5M10.9996 12.5V12.3496" stroke="#FFD361" stroke-width="2" stroke-linecap="round" stroke-linejoin="round"/>
</g>
</svg>
